<svg width="80" height="23" viewBox="0 0 80 23" fill="none" xmlns="http://www.w3.org/2000/svg">
<path d="M0 0.785721H8.57143C9.70807 0.785721 10.7982 1.23725 11.6019 2.04098C12.4056 2.8447 12.8571 3.93479 12.8571 5.07143V17.9286C12.8571 19.0652 12.4056 20.1553 11.6019 20.959C10.7982 21.7628 9.70807 22.2143 8.57143 22.2143H0V17.9286H8.57143V13.6429H2.14286V9.35715H8.57143V5.07143H0V0.785721ZM17.1429 0.785721H23.5714C25.2764 0.785721 26.9115 1.46301 28.1171 2.66861C29.3227 3.8742 30 5.50933 30 7.21429V15.7857C30 17.4907 29.3227 19.1258 28.1171 20.3314C26.9115 21.537 25.2764 22.2143 23.5714 22.2143H17.1429V0.785721ZM23.5714 17.9286C24.1397 17.9286 24.6848 17.7028 25.0867 17.3009C25.4885 16.8991 25.7143 16.354 25.7143 15.7857V7.21429C25.7143 6.64597 25.4885 6.10093 25.0867 5.69906C24.6848 5.2972 24.1397 5.07143 23.5714 5.07143H21.4286V17.9286H23.5714Z" fill="white"/>
<path d="M43.387 1.008L38.491 21.15H36.475L41.353 1.008H43.387Z" fill="white"/>
<path d="M67.1429 0.785721H73.5714C77.1286 0.785721 80 3.65715 80 7.21429V15.7857C80 19.3429 77.1286 22.2143 73.5714 22.2143H67.1429V0.785721ZM73.5714 17.9286C74.75 17.9286 75.7143 16.9643 75.7143 15.7857V7.21429C75.7143 6.03572 74.75 5.07143 73.5714 5.07143H71.4286V17.9286H73.5714ZM50 0.785721H58.5714C59.7081 0.785721 60.7982 1.23725 61.6019 2.04098C62.4056 2.8447 62.8571 3.93479 62.8571 5.07143V9.35715C62.8571 11.7357 60.95 13.6429 58.5714 13.6429H54.2857V17.9286H62.8571V22.2143H50V13.6429C50 11.2857 51.9286 9.35715 54.2857 9.35715H58.5714V5.07143H50V0.785721Z" fill="white"/>
</svg>
