<svg width="22" height="25" viewBox="0 0 22 25" fill="none" xmlns="http://www.w3.org/2000/svg">
<path d="M17.6667 7.66667C17.6667 5.89856 16.9643 4.20286 15.714 2.95262C14.4638 1.70238 12.7681 1 11 1C9.23189 1 7.5362 1.70238 6.28596 2.95262C5.03571 4.20286 4.33333 5.89856 4.33333 7.66667C4.33333 15.4444 1 17.6667 1 17.6667H21C21 17.6667 17.6667 15.4444 17.6667 7.66667Z" fill="white" stroke="white" stroke-width="2" stroke-linecap="round" stroke-linejoin="round"/>
<path d="M12.9223 22.1112C12.727 22.448 12.4466 22.7275 12.1092 22.9218C11.7719 23.1161 11.3894 23.2184 11.0001 23.2184C10.6108 23.2184 10.2283 23.1161 9.89096 22.9218C9.55361 22.7275 9.27323 22.448 9.07788 22.1112" stroke="white" stroke-width="2" stroke-linecap="round" stroke-linejoin="round"/>
</svg>
