<svg width="45" height="45" viewBox="0 0 45 45" fill="none" xmlns="http://www.w3.org/2000/svg">
<circle cx="22.5" cy="22.5" r="22.5" fill="black"/>
<path d="M29.6999 30.6V28.8C29.6999 27.8452 29.3206 26.9296 28.6455 26.2544C27.9703 25.5793 27.0546 25.2 26.0999 25.2H18.8999C17.9451 25.2 17.0294 25.5793 16.3543 26.2544C15.6792 26.9296 15.2999 27.8452 15.2999 28.8V30.6" stroke="white" stroke-width="2" stroke-linecap="round" stroke-linejoin="round"/>
<path d="M22.5001 21.6C24.4883 21.6 26.1001 19.9882 26.1001 18C26.1001 16.0117 24.4883 14.4 22.5001 14.4C20.5119 14.4 18.9001 16.0117 18.9001 18C18.9001 19.9882 20.5119 21.6 22.5001 21.6Z" stroke="white" stroke-width="2" stroke-linecap="round" stroke-linejoin="round"/>
</svg>
