<svg width="25" height="25" viewBox="0 0 25 25" fill="none" xmlns="http://www.w3.org/2000/svg">
<path d="M18.7256 18.6898C17.0162 19.9928 14.9348 20.7147 12.7856 20.7498C5.78564 20.7498 1.78564 12.7498 1.78564 12.7498C3.02953 10.4317 4.75478 8.40645 6.84564 6.80984M10.6856 4.98984C11.374 4.82872 12.0787 4.74818 12.7856 4.74984C19.7856 4.74984 23.7856 12.7498 23.7856 12.7498C23.1786 13.8854 22.4547 14.9546 21.6256 15.9398M14.9056 14.8698C14.631 15.1646 14.2998 15.401 13.9318 15.565C13.5638 15.7289 13.1665 15.8171 12.7637 15.8242C12.3609 15.8313 11.9608 15.7572 11.5873 15.6063C11.2137 15.4554 10.8744 15.2309 10.5895 14.946C10.3046 14.6611 10.08 14.3218 9.92915 13.9482C9.77827 13.5747 9.70417 13.1746 9.71128 12.7718C9.71839 12.3689 9.80655 11.9717 9.97052 11.6037C10.1345 11.2357 10.3709 10.9045 10.6656 10.6298" stroke="black" stroke-width="2" stroke-linecap="round" stroke-linejoin="round"/>
<path d="M1.78564 1.74982L23.7856 23.7498" stroke="black" stroke-width="2" stroke-linecap="round" stroke-linejoin="round"/>
</svg>
