<svg width="148" height="36" viewBox="0 0 148 36" fill="none" xmlns="http://www.w3.org/2000/svg">
<path d="M3.51196 0.761998C3.87596 0.565999 4.26796 0.467999 4.68796 0.467999C5.27596 0.467999 5.82196 0.635999 6.32596 0.971998C6.52196 1.112 6.70396 1.252 6.87196 1.392C7.03996 1.532 7.19396 1.658 7.33396 1.77C7.50196 1.882 7.72596 1.994 8.00596 2.106C8.28596 2.218 8.52396 2.33 8.71996 2.442C9.55996 2.89 10.792 3.59 12.416 4.542L16.154 6.684C18.31 7.916 20.2 8.98 21.824 9.876L24.512 11.304C26.108 12.116 27.452 12.844 28.544 13.488C29.664 14.132 30.7 14.86 31.652 15.672C32.352 16.316 32.898 16.946 33.29 17.562C33.682 18.178 33.878 18.85 33.878 19.578L33.836 20.04C33.556 21.664 32.702 23.218 31.274 24.702C30.182 25.878 28.894 26.886 27.41 27.726C25.954 28.566 24.274 29.364 22.37 30.12C19.122 31.352 15.398 32.458 11.198 33.438C10.75 33.55 10.428 33.62 10.232 33.648L8.50996 34.068L6.07396 34.53C5.31796 34.67 4.39396 34.81 3.30196 34.95C3.18996 34.978 2.97996 35.034 2.67196 35.118C2.39196 35.174 2.13996 35.202 1.91596 35.202C1.80396 35.202 1.63596 35.174 1.41196 35.118C0.823961 35.006 0.529961 34.656 0.529961 34.068C0.529961 33.676 0.669961 33.228 0.949961 32.724C1.20196 32.192 1.46796 31.772 1.74796 31.464C2.58796 30.484 3.81996 29.812 5.44396 29.448C5.77996 29.364 5.97596 29.28 6.03196 29.196C6.11596 29.084 6.17196 28.846 6.19996 28.482C6.19996 27.978 6.22796 27.222 6.28396 26.214C6.50796 23.554 6.64796 21.524 6.70396 20.124C6.81596 18.78 6.88596 17.772 6.91396 17.1C6.94196 16.96 6.96996 16.778 6.99796 16.554C7.02596 16.302 7.03996 16.008 7.03996 15.672C7.03996 15.308 6.98396 14.972 6.87196 14.664C6.28396 13.236 5.34596 11.472 4.05796 9.372C4.05796 9.4 4.07196 9.442 4.09996 9.498C4.15596 9.526 4.19796 9.596 4.22596 9.708C3.86196 9.064 3.25996 8.126 2.41996 6.894C2.30796 6.754 2.18196 6.572 2.04196 6.348C1.90196 6.124 1.77596 5.942 1.66396 5.802C1.57996 5.718 1.46796 5.606 1.32796 5.466C1.18796 5.298 1.07596 5.158 0.991961 5.046C0.851961 4.766 0.781961 4.514 0.781961 4.29C0.781961 3.674 1.08996 3.03 1.70596 2.358C2.29396 1.686 2.89596 1.154 3.51196 0.761998ZM13.298 27.81C15.846 27.25 18.604 26.508 21.572 25.584C23.168 25.08 24.47 24.618 25.478 24.198C26.486 23.778 27.438 23.232 28.334 22.56C27.522 21.58 26.598 20.74 25.562 20.04C24.554 19.312 23.112 18.388 21.236 17.268L18.086 15.378L13.004 12.228C14.04 15.168 14.558 17.926 14.558 20.502C14.558 22.378 14.292 24.24 13.76 26.088L13.298 27.81ZM47.565 25.542C48.209 24.03 48.531 22.476 48.531 20.88C48.531 19.62 48.307 18.472 47.859 17.436C47.439 16.372 46.767 15.504 45.843 14.832C45.227 14.384 44.639 14.16 44.079 14.16C43.855 14.16 43.575 14.216 43.239 14.328C43.491 14.44 43.617 14.636 43.617 14.916C43.617 15.084 43.561 15.28 43.449 15.504C42.805 16.736 42.301 18.08 41.937 19.536C41.573 20.964 41.391 22.406 41.391 23.862C41.391 25.542 41.643 27.138 42.147 28.65C42.483 29.49 42.833 30.148 43.197 30.624C43.365 30.82 43.533 30.96 43.701 31.044C44.513 30.484 45.241 29.7 45.885 28.692C46.557 27.684 47.117 26.634 47.565 25.542ZM46.977 10.8C48.349 11.08 49.525 11.682 50.505 12.606C51.485 13.53 52.227 14.65 52.731 15.966C53.235 17.254 53.487 18.598 53.487 19.998C53.487 21.65 53.165 23.344 52.521 25.08C51.877 26.816 50.995 28.412 49.875 29.868C48.755 31.324 47.509 32.472 46.137 33.312C44.849 34.096 43.589 34.488 42.357 34.488C41.125 34.488 40.047 34.11 39.123 33.354C38.199 32.598 37.527 31.506 37.107 30.078C36.631 28.622 36.393 26.984 36.393 25.164C36.393 24.072 36.477 23.008 36.645 21.972C36.449 22.028 36.155 22.056 35.763 22.056C34.811 22.056 34.335 21.734 34.335 21.09C34.335 20.866 34.363 20.684 34.419 20.544C35.371 17.884 36.799 15.574 38.703 13.614C40.635 11.626 42.847 10.632 45.339 10.632C45.703 10.632 46.249 10.688 46.977 10.8ZM70.7727 10.548C70.1007 15.644 69.7647 20.446 69.7647 24.954C69.7647 27.138 69.8487 29.35 70.0167 31.59C70.0727 31.758 70.1007 31.898 70.1007 32.01C70.1007 32.094 70.0727 32.22 70.0167 32.388C70.0167 32.416 70.0027 32.43 69.9747 32.43V32.514C69.8067 32.99 69.4147 33.41 68.7987 33.774C68.1827 34.11 67.5247 34.306 66.8247 34.362C65.7047 34.474 65.0327 34.18 64.8087 33.48C63.8287 30.848 62.2747 27.208 60.1467 22.56L59.6427 21.384C59.4187 24.884 59.2787 28.622 59.2227 32.598C59.2227 33.186 58.8307 33.718 58.0467 34.194C57.2627 34.642 56.4647 34.866 55.6527 34.866C55.1487 34.866 54.7427 34.768 54.4347 34.572C54.1267 34.376 53.9867 34.054 54.0147 33.606C54.1827 25.99 54.7287 18.78 55.6527 11.976L55.6947 11.808C55.6387 11.192 56.0167 10.632 56.8287 10.128C57.6407 9.624 58.4527 9.372 59.2647 9.372C60.1047 9.372 60.6227 9.652 60.8187 10.212C61.7147 12.648 63.0447 15.784 64.8087 19.62C64.9767 16.988 65.2707 14.314 65.6907 11.598C65.7747 11.038 66.2227 10.548 67.0347 10.128C67.8467 9.68 68.6447 9.456 69.4287 9.456C70.4367 9.456 70.8847 9.82 70.7727 10.548ZM91.5243 19.746C91.5523 19.774 91.5663 19.816 91.5663 19.872C91.7623 21.636 91.8603 23.54 91.8603 25.584C91.8603 27.852 91.7203 30.022 91.4403 32.094C91.3563 32.654 90.9223 33.158 90.1383 33.606C89.3543 34.026 88.5843 34.236 87.8283 34.236C87.3803 34.236 87.0303 34.152 86.7783 33.984C86.5263 33.788 86.4143 33.494 86.4423 33.102C86.7223 30.526 86.8623 28.244 86.8623 26.256C85.9943 28.468 84.8183 30.344 83.3343 31.884C81.8503 33.396 80.1283 34.152 78.1683 34.152C77.7483 34.152 77.3283 34.11 76.9083 34.026C75.0883 33.718 73.7863 32.892 73.0023 31.548C72.2183 30.176 71.8263 28.496 71.8263 26.508C71.8263 24.548 72.1483 22.42 72.7923 20.124C73.2963 18.388 74.0383 16.722 75.0183 15.126C76.0263 13.502 77.2443 12.172 78.6723 11.136C80.1003 10.1 81.6683 9.582 83.3763 9.582C84.8323 9.582 85.8963 9.862 86.5683 10.422C87.2403 10.982 87.5763 11.724 87.5763 12.648C87.5763 13.796 87.1563 15.07 86.3163 16.47C85.4763 17.842 84.5803 18.892 83.6283 19.62C83.3483 19.816 82.9703 19.984 82.4943 20.124C82.0183 20.236 81.5563 20.292 81.1083 20.292C80.6043 20.292 80.1983 20.222 79.8903 20.082C79.5823 19.942 79.4283 19.746 79.4283 19.494C79.4283 19.13 79.7083 18.71 80.2683 18.234C80.6323 17.926 81.1223 17.268 81.7383 16.26C82.3823 15.224 82.7043 14.412 82.7043 13.824C82.7043 13.292 82.4103 13.026 81.8223 13.026C80.9823 13.026 79.9883 14.286 78.8403 16.806C78.1963 18.066 77.7203 19.438 77.4123 20.922C77.0203 22.714 76.8243 24.366 76.8243 25.878C76.8243 28.594 77.5663 30.092 79.0503 30.372C79.6383 30.456 80.2123 30.022 80.7723 29.07C81.3603 28.09 81.8643 26.942 82.2843 25.626C81.9203 25.822 81.3743 26.088 80.6463 26.424C80.1983 26.62 79.7083 26.718 79.1763 26.718C78.6163 26.718 78.1963 26.578 77.9163 26.298C77.7483 26.074 77.6643 25.864 77.6643 25.668C77.6643 25.416 77.7343 25.178 77.8743 24.954C78.0423 24.702 78.2383 24.506 78.4623 24.366C82.0183 21.93 85.4063 19.984 88.6263 18.528C88.8783 18.416 89.1863 18.36 89.5503 18.36C90.1103 18.36 90.6003 18.5 91.0203 18.78C91.4403 19.032 91.6083 19.354 91.5243 19.746Z" fill="#0085FF"/>
<path d="M111.224 9.918C111.28 9.386 111.728 8.91 112.568 8.49C113.408 8.042 114.206 7.818 114.962 7.818C115.858 7.818 116.292 8.154 116.264 8.826L115.382 18.402C114.85 24.198 114.458 28.93 114.206 32.598C114.178 33.186 113.758 33.718 112.946 34.194C112.134 34.642 111.322 34.866 110.51 34.866C109.446 34.866 108.928 34.46 108.956 33.648C109.376 28.104 109.712 23.918 109.964 21.09C110.216 18.234 110.636 14.51 111.224 9.918ZM107.234 11.43C107.514 11.15 107.962 10.912 108.578 10.716C109.222 10.492 109.824 10.38 110.384 10.38C111.224 10.38 111.644 10.632 111.644 11.136C111.644 11.416 111.518 11.724 111.266 12.06C110.398 13.236 109.292 14.146 107.948 14.79C106.632 15.406 105.204 15.714 103.664 15.714C102.096 15.714 100.444 15.294 98.7082 14.454C98.9602 16.638 99.0862 18.822 99.0862 21.006L100.388 21.048C101.676 21.104 103.398 21.202 105.554 21.342L107.108 21.468C108.116 21.552 108.62 21.874 108.62 22.434C108.62 22.91 108.298 23.4 107.654 23.904C107.038 24.408 106.408 24.66 105.764 24.66C104.616 24.66 103.23 24.604 101.606 24.492L98.9602 24.366C98.7362 27.222 98.3302 29.924 97.7422 32.472C97.6302 33.06 97.1542 33.564 96.3142 33.984C95.5022 34.404 94.7042 34.614 93.9202 34.614C93.4442 34.614 93.0802 34.53 92.8282 34.362C92.5762 34.166 92.4922 33.872 92.5762 33.48C93.2762 30.4 93.7102 27.264 93.8782 24.072H93.1642C92.5202 24.072 92.1982 23.876 92.1982 23.484C92.1982 23.204 92.3242 22.896 92.5762 22.56C92.8562 22.224 93.1502 21.972 93.4582 21.804L93.9202 21.552C93.9202 18.164 93.6122 14.832 92.9962 11.556V11.262C92.8562 11.066 92.7862 10.898 92.7862 10.758C92.7862 10.254 93.1922 9.75 94.0042 9.246C94.8442 8.742 95.6282 8.49 96.3562 8.49C96.5802 8.49 96.8322 8.546 97.1122 8.658L98.7502 9.624C100.122 10.464 101.284 11.122 102.236 11.598C103.216 12.074 104.154 12.312 105.05 12.312C105.918 12.312 106.646 12.018 107.234 11.43ZM119.046 11.934C119.074 11.374 119.48 10.884 120.264 10.464C121.048 10.016 121.832 9.792 122.616 9.792C123.064 9.792 123.428 9.89 123.708 10.086C123.988 10.254 124.114 10.534 124.086 10.926L122.868 33.732C122.84 34.32 122.434 34.838 121.65 35.286C120.866 35.706 120.082 35.916 119.298 35.916C118.262 35.916 117.758 35.51 117.786 34.698L119.046 11.934ZM118.962 6.39C118.906 6.782 119.004 7.076 119.256 7.272C119.536 7.468 119.9 7.566 120.348 7.566C121.104 7.566 121.874 7.356 122.658 6.936C123.442 6.516 123.876 6.012 123.96 5.424C124.184 4.024 124.338 2.974 124.422 2.274C124.534 1.574 124.1 1.224 123.12 1.224C122.364 1.224 121.58 1.434 120.768 1.854C119.956 2.274 119.522 2.75 119.466 3.282L118.962 6.39ZM146.228 9.33C146.704 9.33 147.096 9.442 147.404 9.666C147.712 9.89 147.866 10.156 147.866 10.464C147.866 10.716 147.74 10.996 147.488 11.304C147.544 11.248 146.858 12.018 145.43 13.614C142.406 16.974 140.194 19.55 138.794 21.342C140.67 24.198 142.798 27.012 145.178 29.784C145.374 29.98 145.472 30.204 145.472 30.456C145.472 31.016 145.038 31.562 144.17 32.094C143.33 32.598 142.504 32.85 141.692 32.85C141.132 32.85 140.712 32.696 140.432 32.388C138.5 30.176 136.82 28.048 135.392 26.004C134.328 27.516 132.76 29.812 130.688 32.892C130.464 33.2 130.03 33.466 129.386 33.69C128.742 33.886 128.098 33.984 127.454 33.984C126.978 33.984 126.586 33.928 126.278 33.816C125.97 33.676 125.816 33.48 125.816 33.228C125.816 33.088 125.9 32.892 126.068 32.64C128.84 28.496 131.206 25.15 133.166 22.602C131.15 19.382 129.442 16.078 128.042 12.69C127.986 12.466 127.958 12.312 127.958 12.228C127.958 11.64 128.364 11.108 129.176 10.632C129.988 10.128 130.8 9.876 131.612 9.876C132.508 9.876 133.068 10.17 133.292 10.758C134.272 13.11 135.434 15.518 136.778 17.982C139.074 15.238 141.244 12.816 143.288 10.716C143.652 10.324 144.1 10.002 144.632 9.75C145.192 9.47 145.724 9.33 146.228 9.33Z" fill="white"/>
</svg>
